# xmcd CD database file
#
# Track frame offsets:
#	150
#	11777
#	24665
#	37482
#	49152
#	58967
#	70342
#	80220
#	92767
#	105250
#	136032
#	192680
#	203795
#	214685
#	227142
#
# Disc length: 3211 seconds
#
# Revision: 1
# Processed by: cddbd v1.5.2PL0 Copyright (c) Steve Scherf et al.
# Submitted via: CDex 1.51
#
DISCID=e10c890f
DTITLE=Various Artist - Blues Best Vol 1
DYEAR=1994
DGENRE=Blues
TTITLE0=Jacobs Walter and Walter Little - My Babe
TTITLE1=Tucker Tommy - High Heel Sneakers
TTITLE2=Dixon Willie and Waters Muddy - Hoochie Coochie Man
TTITLE3=Williamson Sonny Boy - Don´t Start
TTITLE4=Merriweather and Berry Chuck - Worried Life Blues
TTITLE5=Charles Ray - Confession Blues
TTITLE6=Hooker John Lee - Dimples
TTITLE7=Guy Buddy - I Suffer With The Blues
TTITLE8=Woods P-Kirkland L-James Etta - Next Door To The Blues
TTITLE9=Burnett C and The Yardbirds - Smokestack Lightning
TTITLE10=Rollins and Benson George - All Blues
TTITLE11=Walker T-Bone and James Elmore - Stormy Monday Blues
TTITLE12=Dixon Willie and Wolf Howlin' - The Red Rooster
TTITLE13=McDaniel E and Diddley Bo - I´m A Man
TTITLE14=Willie Dixon - Walkin´ The Blues
EXTD=YEAR: 1994
EXTT0=
EXTT1=
EXTT2=
EXTT3=
EXTT4=
EXTT5=
EXTT6=
EXTT7=
EXTT8=
EXTT9=
EXTT10=
EXTT11=
EXTT12=
EXTT13=
EXTT14=
PLAYORDER=
